<svg width="20" height="20" viewBox="0 0 20 20" fill="none" xmlns="http://www.w3.org/2000/svg">
<path d="M19.666 6.85366L10.5 0.187487C10.1667 -0.0624956 9.83334 -0.0624956 9.50005 0.187487L0.334013 6.85366C-0.332619 7.27031 0.0840311 8.35355 0.833978 8.35355H2.50054V19.17C2.50054 19.67 2.83384 20 3.3338 20H16.6662C17.1661 20 17.4994 19.67 17.4994 19.17V8.35355H19.166C19.916 8.35355 20.3326 7.27031 19.666 6.85366ZM10 16.6863C7.2502 16.6863 5.00036 14.4365 5.00036 11.6867C5.00036 8.93687 7.2502 6.68703 10 6.68703C12.7498 6.68703 14.9997 8.93687 14.9997 11.6867C14.9997 14.4365 12.7498 16.6863 10 16.6863Z" fill="#007CBE"/>
<path d="M11.2499 10.4368V7.93701H8.75011V10.4368H6.25029V12.9367H8.75011V15.4365H11.2499V12.9367H13.7498V10.4368H11.2499Z" fill="#007CBE"/>
</svg>
